<svg width="330" height="440" viewBox="0 0 330 440" fill="none" xmlns="http://www.w3.org/2000/svg">
<path d="M320.833 165H293.333V128.333C293.333 57.5695 235.764 0 165 0C94.2356 0 36.667 57.5695 36.667 128.333V165H9.16695C4.10008 165 0 169.1 0 174.167V403.334C0 423.556 16.4441 440 36.667 440H293.334C313.556 440 330 423.556 330 403.333V174.167C330 169.1 325.9 165 320.833 165ZM192.447 356.489C192.733 359.075 191.901 361.671 190.164 363.614C188.427 365.557 185.939 366.667 183.334 366.667H146.667C144.062 366.667 141.573 365.557 139.837 363.614C138.1 361.672 137.267 359.076 137.554 356.489L143.337 304.488C133.946 297.657 128.334 286.853 128.334 275C128.334 254.778 144.778 238.333 165.001 238.333C185.224 238.333 201.668 254.777 201.668 275C201.668 286.853 196.055 297.657 186.665 304.488L192.447 356.489ZM238.333 165H91.667V128.333C91.667 87.8977 124.565 55 165 55C205.435 55 238.333 87.8977 238.333 128.333V165Z" fill="#EFEFEF"/>
</svg>
