<svg width="18" height="21" viewBox="0 0 18 21" fill="none" xmlns="http://www.w3.org/2000/svg">
<circle cx="9" cy="10" r="9" fill="#D7D7DC"/>
<path d="M11.992 8.632C11.992 9.35733 11.5813 9.92267 10.76 10.328L10.536 10.424C10.344 10.4987 10.1413 10.616 9.928 10.776C9.72533 10.9253 9.624 11.0427 9.624 11.128V12.28H7.688V11.064C7.688 10.1893 8.29067 9.48533 9.496 8.952C9.85867 8.78133 10.04 8.65867 10.04 8.584V7.784C10.008 7.67733 9.95467 7.58133 9.88 7.496C9.816 7.4 9.75733 7.33067 9.704 7.288C9.65067 7.23467 9.61333 7.208 9.592 7.208H7.8C7.48 7.35733 7.25067 7.58133 7.112 7.88L5.256 7.384C5.33067 7.14933 5.45867 6.90933 5.64 6.664C6.30133 5.77867 7 5.336 7.736 5.336H9.576C10.024 5.336 10.4187 5.464 10.76 5.72C11.1333 6.008 11.4373 6.30133 11.672 6.6C11.8853 6.888 11.992 7.24 11.992 7.656V8.632ZM9.672 15H7.64V13.016H9.672V15Z" fill="white"/>
</svg>
